<?xml version="1.0" encoding="utf-8"?>
<!-- Generator: Adobe Illustrator 16.0.3, SVG Export Plug-In . SVG Version: 6.00 Build 0)  -->
<!DOCTYPE svg PUBLIC "-//W3C//DTD SVG 1.1//EN" "http://www.w3.org/Graphics/SVG/1.1/DTD/svg11.dtd">
<svg version="1.1" id="Layer_1" xmlns="http://www.w3.org/2000/svg" xmlns:xlink="http://www.w3.org/1999/xlink" x="0px" y="0px"
	 width="20px" height="15px" viewBox="0 0 20 15" enable-background="new 0 0 20 15" xml:space="preserve">
<path fill="#66CCC2" d="M19.688,2.592l-2.314-2.284c-0.429-0.412-1.113-0.412-1.542,0L7.967,8.084L3.896,4.066
	c-0.405-0.4-1.049-0.4-1.442,0L0.292,6.201c-0.391,0.385-0.391,1.022,0.014,1.41l4.728,4.68c0.026,0.037,0.051,0.087,0.089,0.125
	l2.302,2.271C7.639,14.899,7.917,15,8.194,15c0.139,0,0.265-0.025,0.393-0.076c0.138-0.048,0.265-0.124,0.379-0.236L19.688,4.103
	C20.104,3.69,20.104,3.005,19.688,2.592L19.688,2.592z"/>
</svg>
