<?xml version="1.0" encoding="utf-8"?>
<!-- Generator: Adobe Illustrator 16.0.3, SVG Export Plug-In . SVG Version: 6.00 Build 0)  -->
<!DOCTYPE svg PUBLIC "-//W3C//DTD SVG 1.1//EN" "http://www.w3.org/Graphics/SVG/1.1/DTD/svg11.dtd">
<svg version="1.1" xmlns="http://www.w3.org/2000/svg" xmlns:xlink="http://www.w3.org/1999/xlink" x="0px" y="0px" width="1380px"
	 height="420px" viewBox="0 0 1380 420" enable-background="new 0 0 1380 420" xml:space="preserve">
<g id="pull" display="none">
	<g display="inline">
		<path fill="#89CFE5" d="M1380,195c0-36.281-25.767-66.545-60-73.497V120l-3.727,0.844c-3.677-0.551-7.441-0.844-11.273-0.844
			c-15.63,0-28.828,7.166-42.155,12.967C1219.863,151.673,1110,174.454,1110,174.454V210c0,0,108.123,25.049,150,45
			c14.153,6.744,28.116,15,45,15c3.908,0,7.746-0.302,11.493-0.876L1320,270v-1.503C1354.233,261.548,1380,231.281,1380,195z"/>
	</g>
	<g display="inline">
		<path fill="#FFFFFF" d="M1305,243c-26.467,0-48-21.533-48-48s21.533-48,48-48s48,21.533,48,48S1331.467,243,1305,243z M1305,153
			c-23.159,0-42,18.841-42,42s18.841,42,42,42s42-18.841,42-42S1328.159,153,1305,153z"/>
	</g>
</g>
<g id="body">
	<g>
		<path fill="#333333" d="M180,285c0,8.25,6.75,15,15,15h990c8.25,0,15-6.75,15-15V135c0-8.25-6.75-15-15-15H195
			c-8.25,0-15,6.75-15,15V285z"/>
	</g>
	<g>
		<circle fill="#333333" cx="690" cy="210" r="210"/>
	</g>
	<g>
		<path fill="#FFFFFF" d="M690,393c-100.907,0-183-82.093-183-183S589.093,27,690,27s183,82.093,183,183S790.907,393,690,393z
			 M690,33c-97.597,0-177,79.403-177,177s79.403,177,177,177s177-79.403,177-177S787.597,33,690,33z"/>
	</g>
	<g>
		<circle fill="none" cx="690" cy="210" r="120"/>
	</g>
	<g>
		<path fill="#FFE566" d="M14.849,297.879C6.649,299.051,0,293.285,0,285V135c0-8.285,6.649-14.051,14.849-12.879L180,150v120
			L14.849,297.879z"/>
	</g>
	<g>
		<path fill="#66CCC2" d="M1155,270c0,0-4.937,0.782-10.359,1.122c-3.703,0.677-8.613,0.46-11.563-0.624
			c-0.439-0.144-0.838-0.308-1.169-0.498c-17.941-10.342-29.713-30-51.908-30s-33.967,19.658-51.908,30
			c-3.504,2.021-12.68,2.021-16.184,0c-17.941-10.342-29.713-30-51.908-30s-33.967,19.658-51.908,30
			c-0.258,0.149-0.568,0.275-0.908,0.387c-3.665,1.482-10.781,1.474-14.414-0.021c-1.611-0.196-2.684-0.366-2.684-0.366
			c-2.771,10.356-6.217,20.382-10.321,30H900h120h120h30v-15C1170,276.715,1163.285,270,1155,270z"/>
	</g>
	<g>
		<g>
			<path fill="#FFE566" d="M249.861,170.968c-1.635,0.466-2.452,0.732-4.087,1.354c0-6.349,0-9.524,0-15.876
				c-2.093,0.794-3.141,1.254-5.234,2.323c0-1.362,0-2.039,0-3.401c5.821-2.977,8.732-3.867,14.553-4.887c0,1.362,0,2.048,0,3.407
				c-2.093,0.366-3.139,0.601-5.232,1.198C249.861,161.438,249.861,164.619,249.861,170.968z"/>
			<path fill="#FFE566" d="M278.464,170.104c-1.862-0.305-2.789-0.428-4.651-0.645c-1.044-4.172-1.566-6.258-2.61-10.397
				c-0.097-0.369-0.264-1.128-0.497-2.273s-0.4-2.3-0.4-2.3c-0.003,0-0.185,1.222-0.396,2.259s-0.374,1.77-0.488,2.212
				c-1.039,3.976-1.56,5.974-2.599,9.987c-1.856-0.047-2.783-0.038-4.639,0.047c-1.967-7.62-2.953-11.394-4.92-18.844
				c1.608-0.214,2.414-0.29,4.022-0.39c0.986,4.148,1.478,6.234,2.464,10.424c0.431,1.934,0.938,5.036,0.938,5.036
				c0.003,0,0.171-1.274,0.36-2.326c0.189-1.049,0.369-1.86,0.536-2.44c1.124-4.313,1.683-6.457,2.807-10.723
				c1.545,0.073,2.32,0.129,3.866,0.278c1.124,4.43,1.682,6.656,2.805,11.121c0.123,0.495,0.278,1.26,0.463,2.279
				c0.185,1.014,0.423,2.607,0.423,2.607c0.006,0,0.229-1.503,0.422-2.502c0.193-0.996,0.368-1.799,0.526-2.408
				c0.981-4.063,1.472-6.094,2.454-10.134c1.608,0.275,2.41,0.431,4.018,0.756C281.407,159.041,280.425,162.709,278.464,170.104z"/>
			<path fill="#FFE566" d="M286.532,171.68c0-7.717,0-11.566,0-19.277c1.635,0.363,2.455,0.548,4.09,0.943
				c0.001,7.711,0.001,11.566,0,19.283C288.987,172.233,288.167,172.043,286.532,171.68z"/>
			<path fill="#FFE566" d="M307.484,171.498c0,1.74-0.624,2.965-1.878,3.659c-1.251,0.697-2.997,0.759-5.229,0.19
				c-2.057-0.524-3.877-1.377-5.459-2.552c0-1.521,0.003-2.282,0.003-3.803c1.301,0.908,2.402,1.605,3.302,2.071
				c0.898,0.466,1.723,0.797,2.47,0.987c0.896,0.229,1.586,0.229,2.063,0.009c0.478-0.223,0.721-0.68,0.721-1.354
				c0-0.381-0.105-0.735-0.316-1.084c-0.211-0.346-0.521-0.712-0.932-1.087c-0.407-0.375-1.239-1.011-2.496-1.931
				c-1.178-0.858-2.063-1.62-2.651-2.279s-1.058-1.374-1.409-2.136c-0.352-0.768-0.527-1.608-0.527-2.511
				c0-1.705,0.577-2.906,1.733-3.586s2.752-0.75,4.792-0.234c1.002,0.255,1.956,0.604,2.867,1.066
				c0.908,0.463,1.862,1.034,2.855,1.702c-0.527,1.146-0.79,1.72-1.317,2.862c-1.028-0.671-1.879-1.175-2.553-1.512
				c-0.671-0.334-1.332-0.586-1.982-0.75c-0.773-0.196-1.367-0.17-1.78,0.085s-0.618,0.671-0.618,1.251
				c0,0.363,0.082,0.7,0.249,1.011c0.167,0.313,0.431,0.633,0.797,0.979c0.363,0.343,1.233,1.014,2.596,2.007
				c1.802,1.315,3.032,2.484,3.7,3.51C307.148,169.099,307.484,170.241,307.484,171.498z"/>
			<path fill="#FFE566" d="M319.482,179.285c-1.635-0.258-2.452-0.398-4.087-0.712c0.003-6.354,0.003-9.53,0-15.882
				c-2.093-0.401-3.144-0.624-5.237-1.096c0-1.359,0-2.045,0-3.407c5.821,1.315,8.732,1.91,14.555,2.502c0,1.362,0,2.042,0,3.401
				c-2.093-0.214-3.138-0.346-5.231-0.677C319.485,169.767,319.485,172.931,319.482,179.285z"/>
			<path fill="#FFE566" d="M334.696,180.319c0.001-7.714,0.001-11.569,0-19.286c1.635-0.064,2.452-0.117,4.087-0.296
				c0.001,7.717-0.001,11.566-0.003,19.277C337.146,180.193,336.331,180.255,334.696,180.319z"/>
			<path fill="#FFE566" d="M351.551,176.974c-1.635,0.621-2.452,0.891-4.087,1.356c0-6.349,0-9.53,0-15.882
				c-2.093,0.598-3.142,0.838-5.235,1.204c0-1.359,0-2.039,0-3.401c5.821-1.022,8.735-1.904,14.556-4.884c0,1.362,0,2.039,0,3.401
				c-2.093,1.072-3.141,1.535-5.234,2.329C351.551,167.449,351.551,170.625,351.551,176.974z"/>
		</g>
	</g>
	<g>
		<g>
			<path fill="#FFE566" d="M1053.993,159.803c0.437,1.854,0.012,3.495-1.233,4.86c-1.248,1.365-3.208,2.376-5.912,3.202
				c-0.794,0.243-1.195,0.363-1.986,0.615c0.727,2.048,1.09,3.076,1.813,5.124c-1.778,0.41-2.669,0.63-4.436,1.096
				c-2.221-5.247-3.325-7.878-5.552-13.122c2.938-1.477,4.415-2.18,7.383-3.513c2.815-1.266,5.089-1.743,6.776-1.441
				C1052.537,156.926,1053.574,158.021,1053.993,159.803z M1043.982,165.976c0.618-0.223,0.929-0.331,1.547-0.548
				c1.444-0.507,2.47-1.058,3.073-1.705s0.794-1.365,0.571-2.15c-0.226-0.794-0.697-1.274-1.427-1.409s-1.755,0.067-3.079,0.615
				c-0.879,0.363-1.324,0.548-2.203,0.923C1043.071,163.409,1043.376,164.268,1043.982,165.976z"/>
			<path fill="#FFE566" d="M1076.353,147.053c0.475,5.924,0.712,8.883,1.187,14.804c0.135,1.69-0.123,3.199-0.738,4.497
				c-0.618,1.298-1.564,2.288-2.845,2.991c-1.283,0.706-2.827,1.078-4.655,1.195c-2.757,0.179-4.986-0.267-6.747-1.304
				c-1.758-1.037-2.856-2.52-3.275-4.611c-0.94-4.705-1.421-7.061-2.364-11.763c1.989-0.721,2.985-1.063,4.98-1.72
				c0.782,4.767,1.172,7.148,1.951,11.915c0.246,1.503,0.771,2.537,1.559,3.149c0.791,0.612,1.963,0.832,3.524,0.662
				c1.512-0.164,2.566-0.639,3.164-1.485s0.817-2.118,0.639-3.8c-0.563-5.303-0.847-7.957-1.412-13.26
				C1073.326,147.785,1074.34,147.53,1076.353,147.053z"/>
			<path fill="#FFE566" d="M1083.507,169.998c-0.51-9.691-0.765-14.543-1.28-24.234c2.021-0.407,3.032-0.589,5.057-0.932
				c0.267,8.37,0.398,12.563,0.662,20.93c3.574,0.062,5.364,0.144,8.941,0.416c-0.009,1.928-0.006,2.889-0.015,4.816
				C1091.525,170.353,1088.845,170.156,1083.507,169.998z"/>
			<path fill="#FFE566" d="M1100.628,171.495c0.202-11.361,0.305-17.051,0.501-28.418c2.027-0.17,3.029-0.234,5.054-0.343
				c-0.316,9.735-0.475,14.604-0.797,24.334c3.571,0.475,5.355,0.759,8.918,1.447c-0.132,2.209-0.199,3.316-0.331,5.525
				C1108.644,172.778,1105.975,172.271,1100.628,171.495z"/>
			<path fill="#FFE566" d="M1125.542,177.246c1.233-13.658,1.84-20.49,3.067-34.154c2.004,0.173,3.006,0.27,5.001,0.504
				c-1.418,14.068-2.121,21.105-3.542,35.168C1128.258,178.128,1127.358,177.823,1125.542,177.246z"/>
			<path fill="#FFE566" d="M1143.759,184.26c-1.781-0.809-2.669-1.201-4.462-1.951c1.482-12.243,2.218-18.369,3.7-30.615
				c-2.49-0.554-3.738-0.803-6.243-1.254c0.275-2.537,0.41-3.806,0.686-6.343c7.087,1.011,10.611,1.711,17.561,3.519
				c-0.393,2.777-0.595,4.166-0.987,6.943c-2.458-0.735-3.686-1.078-6.164-1.711C1146.211,165.413,1145.394,171.697,1143.759,184.26
				z"/>
		</g>
	</g>
	<g>
		<circle fill="#71607F" cx="935.625" cy="170.625" r="5.625"/>
	</g>
	<g>
		<circle fill="#71607F" cx="955.313" cy="185.625" r="5.625"/>
	</g>
	<g>
		<circle fill="#71607F" cx="975" cy="170.625" r="5.625"/>
	</g>
	<g>
		<circle fill="#71607F" cx="994.688" cy="155.625" r="5.625"/>
	</g>
	<g>
		<circle fill="#71607F" cx="1014.375" cy="170.625" r="5.625"/>
	</g>
	<g>
		<circle fill="#66CCC2" cx="690" cy="210" r="180"/>
	</g>
</g>
<g id="twist-stripes" display="none">
	<g display="inline">
		
			<rect x="42" y="89.066" transform="matrix(0.9923 0.124 -0.124 0.9923 26.3948 -3.9599)" fill="#FFFFFF" width="5.999" height="241.868"/>
	</g>
	<g display="inline">
		
			<rect x="72" y="89.066" transform="matrix(0.9923 0.124 -0.124 0.9923 26.6265 -7.681)" fill="#FFFFFF" width="5.999" height="241.868"/>
	</g>
	<g display="inline">
		
			<rect x="102" y="89.066" transform="matrix(0.9923 0.124 -0.124 0.9923 26.8581 -11.402)" fill="#FFFFFF" width="5.999" height="241.868"/>
	</g>
	<g display="inline">
		
			<rect x="132" y="89.066" transform="matrix(0.9923 0.124 -0.124 0.9923 27.0898 -15.123)" fill="#FFFFFF" width="5.999" height="241.868"/>
	</g>
	<g display="inline">
		
			<rect x="154.5" y="209.533" transform="matrix(0.9923 0.124 -0.124 0.9923 34.7056 -17.4505)" fill="#FFFFFF" width="5.999" height="120.934"/>
	</g>
</g>
<g id="bop" display="none">
	<g display="inline">
		<g>
			<circle fill="#71607F" cx="690" cy="210" r="120"/>
		</g>
		<g>
			<g>
				<path fill-rule="evenodd" clip-rule="evenodd" fill="#FFE566" d="M726.753,225.984c-6.079,5.625-12.466,9.929-19.655,13.063
					c-0.668,0.284-1.395,1.799-1.207,2.505c2.18,8.089-2.546,14.045-7.787,16.975c-7.195,4.025-15.63,3.293-20.818-1.761
					c-3.58-3.483-3.398-7.79-2.262-12.167c0.463-1.784,1.222-3.483,1.925-5.446c-2.546,0.311-4.857,0.729-7.181,0.847
					c-8.593,0.425-16.301-2.452-23.581-6.671c-1.591-0.92-2.678-1.321-3.759,0.604c-3.899,6.958-10.307,10.462-17.783,11.83
					c-9.955,1.822-19.834,1.151-29.268-2.889c-2.068-0.885-4.119-2.042-5.845-3.472c-6.023-4.978-6.085-12.129,0.073-16.931
					c2.402-1.872,3.68-3.873,4.239-6.782c0.917-4.772,2.271-9.463,3.217-14.235c0.231-1.172-0.097-2.672-0.668-3.765
					c-4.292-8.194-2.563-14.194,5.845-18.1c11.687-5.432,23.391-5.941,34.74,1.087c1.676,1.037,2.974,1.175,4.77,0.085
					c14.197-8.607,27.979-7.274,41.262,2.106c2.186,1.544,4.23,1.767,6.688,0.879c6.674-2.405,13.465-4.046,20.684-3.352
					c5.839,0.568,10.919,3.029,15.981,5.684c1.066,0.56,2.332,0.744,3.504,1.099c0.527-1.77,1.86-3.756,1.456-5.279
					c-2.643-9.935,2.815-19.79,12.756-22.5c4.667-1.269,8.865-0.117,12.65,2.537c1.919,1.345,3.352,1.523,5.572,0.451
					c2.833-1.374,6.009-2.388,9.129-2.757c4.913-0.568,8.543,1.896,10.872,6.223c0.442,0.817,0.964,1.661,1.131,2.549
					c0.99,5.396,3.334,9.516,8.092,12.92c4.614,3.299,4.403,9.894,0.724,14.865c-3.287,4.441-7.72,7.239-13.192,8.013
					c-2.145,0.302-3.469,1.266-3.486,3.173c-0.029,3.753-0.372,7.743,0.732,11.215c2.373,7.444-1.822,17.35-9.322,20.508
					c-7.025,2.956-13.494,2.505-19.447-2.587c-0.609-0.521-1.901-0.718-2.701-0.475c-8.168,2.458-13.418,0.103-16.775-7.658
					C727.74,227.64,727.295,226.966,726.753,225.984z M633.064,210.451c0.697-1.286,1.588-2.795,2.355-4.374
					c4.008-8.232,1.603-15.902-6.492-20.194c-7.225-3.829-14.522-2.435-21.58,0.492c-4.676,1.942-5.162,4.526-1.852,8.329
					c1.313,1.512,1.629,2.818,1.113,4.72c-2.191,8.086-4.184,16.219-6.404,24.296c-0.311,1.125-1.459,2.036-2.262,3.009
					c-1.245,1.512-3.311,2.854-3.615,4.523c-0.48,2.634,2.188,3.668,4.225,4.685c0.826,0.416,1.731,0.721,2.631,0.914
					c8.106,1.758,16.228,1.98,24.334,0.038c8.982-2.162,13.922-10.925,10.945-19.646
					C635.678,214.942,634.283,212.845,633.064,210.451z M726.381,206.628c0.193-6.021-2.057-10.79-6.357-14.147
					c-6.176-4.825-20.15-5.332-27.229-0.984c-4.26,2.616-4.626,5.531-1.55,9.478c0.861,1.11,1.362,2.93,1.204,4.327
					c-0.662,5.859-1.518,11.701-2.584,17.502c-0.252,1.389-1.307,2.977-2.473,3.788c-3.519,2.44-4.181,4.708-1.441,7.928
					c1.412,1.652,1.857,3.229,0.899,5.054c-0.888,1.696-1.852,3.422-3.114,4.837c-2.73,3.07-2.232,6.501,1.438,8.385
					c3.97,2.036,9.577,0.668,11.818-3.135c0.659-1.128,1.181-3.205,0.606-4.031c-2.215-3.144-0.686-6.138-0.328-9.22
					c0.223-1.922,1.242-2.733,3.006-3.404c7.119-2.707,13.635-6.466,19.087-11.895C723.568,216.923,725.918,211.89,726.381,206.628z
					 M687.706,213.205c0.155-16.025-11.165-27.999-24.885-29.455c-7.107-0.756-13.646,0.372-18.117,6.398
					c-5.493,7.4-6.855,15.592-3.067,24.302c2.294,5.276,5.903,9.513,10.57,12.756c7.33,5.095,15.331,7.148,23.704,3.021
					C684.006,226.239,687.527,219.117,687.706,213.205z M772.482,186.088c-0.762-3.267,1.395-5.115,2.865-7.31
					c1.755-2.613,2.643-5.443,0.674-8.402c-1.658-2.487-4.181-2.985-6.855-2.593c-4.831,0.718-7.553,4.699-7.254,9.598
					c0.193,3.141-0.205,6.325-0.39,9.483c-0.132,2.253-1.351,3.24-3.58,3.949c-2.464,0.782-5.027,2.13-6.788,3.964
					c-1.163,1.213-1.775,4.031-1.163,5.534c0.486,1.192,3.164,1.629,4.948,2.089c0.996,0.261,2.153-0.126,3.117-0.211
					c-0.504,6.123-0.891,11.895-1.509,17.646c-0.161,1.532-0.829,3.103-1.608,4.459c-1.26,2.209-1.629,4.591-0.018,6.384
					c1.219,1.354,3.384,2.461,5.177,2.54c3.354,0.144,6.138-1.638,8.124-4.43c1.488-2.089,1.711-4.491,0.17-6.384
					c-1.948-2.396-1.84-4.963-1.547-7.611c0.483-4.324,1.219-8.616,1.717-12.935c0.281-2.458,1.354-3.48,3.938-3.721
					c3.36-0.316,6.773-0.964,9.946-2.083c2.769-0.973,4.198-3.483,3.524-6.513c-0.668-2.988-3.053-4.069-5.877-4.02
					C777.633,185.555,775.172,185.877,772.482,186.088z M742.257,184.603c-0.727,0.765-2.692,1.896-3.126,3.451
					c-1.711,6.135-3.519,12.343-4.178,18.642c-0.598,5.769-0.114,11.722,0.571,17.514c0.434,3.677,3.539,5.634,6.275,5.104
					c2.704-0.521,3.97-2.525,3.785-6.548c-0.132-2.889-0.694-5.754-0.853-8.637c-0.451-8.004,0.331-15.879,2.555-23.628
					C748.421,186.542,746.909,184.538,742.257,184.603z M738.264,176.563c0.018,3.779,2.285,6.003,5.994,5.906
					c4.462-0.12,8.821-3.908,9.545-8.285c0.498-3.038-1.081-5.54-4.031-6.387C744.621,166.327,738.231,171.19,738.264,176.563z"/>
			</g>
			<g>
				<path fill-rule="evenodd" clip-rule="evenodd" fill="#FFE566" d="M610.849,228.1c1.04-3.604,1.969-6.979,3.026-10.313
					c0.182-0.56,0.879-1.26,1.427-1.351c2.033-0.337,4.104-0.615,6.161-0.589c2.168,0.021,4.207,0.797,4.869,3.114
					c0.668,2.323,0.173,4.491-1.711,6.249C622.025,227.628,616.477,228.923,610.849,228.1z"/>
			</g>
			<g>
				<path fill-rule="evenodd" clip-rule="evenodd" fill="#FFE566" d="M617.438,204.495c0.357-2.227,0.75-4.447,1.063-6.677
					c0.205-1.474,0.366-3.185,2.312-2.918c2.021,0.27,4.289,0.688,5.801,1.878c0.665,0.519,0.322,3.855-0.606,4.585
					c-2.294,1.796-5.188,2.827-7.843,4.169C617.924,205.184,617.678,204.838,617.438,204.495z"/>
			</g>
			<g>
				<path fill-rule="evenodd" clip-rule="evenodd" fill="#FFE566" d="M700.579,222.56c0.176-1.611,0.305-2.728,0.419-3.844
					c0.105-1.096,1.031-6.272,1.471-9.079c0.437-2.76,0.721-5.558,1.471-8.229c0.27-0.97,1.605-2.115,2.619-2.309
					c3.132-0.589,6.146,0.205,7.986,2.93c2.068,3.059,1.945,6.483,0.217,9.727C711.803,217.295,706.752,220.148,700.579,222.56z"/>
			</g>
			<g>
				<path fill-rule="evenodd" clip-rule="evenodd" fill="#FFE566" d="M677.109,205.16c-0.258,9.7-10.315,17.285-19.494,14.71
					c-5.021-1.412-8.104-5.687-7.875-10.91c0.475-10.77,12.756-18.185,21.858-13.198
					C675.176,197.722,677.212,201.199,677.109,205.16z"/>
			</g>
		</g>
	</g>
</g>
</svg>
