<?xml version="1.0" encoding="utf-8"?>
<!-- Generator: Adobe Illustrator 16.0.3, SVG Export Plug-In . SVG Version: 6.00 Build 0)  -->
<!DOCTYPE svg PUBLIC "-//W3C//DTD SVG 1.1//EN" "http://www.w3.org/Graphics/SVG/1.1/DTD/svg11.dtd">
<svg version="1.1" id="Layer_1" xmlns="http://www.w3.org/2000/svg" xmlns:xlink="http://www.w3.org/1999/xlink" x="0px" y="0px"
	 width="220px" height="80px" viewBox="0 0 220 80" enable-background="new 0 0 220 80" xml:space="preserve">
<g>
	<path fill="#89CFE5" d="M220,70c0,5.5-4.5,10-10,10H10C4.5,80,0,75.5,0,70V10C0,4.5,4.5,0,10,0h200c5.5,0,10,4.5,10,10V70z"/>
</g>
<path fill="#FFFFFF" d="M70,24.735c-1.84,0.803-3.817,1.346-5.892,1.59c2.118-1.25,3.744-3.229,4.51-5.587
	c-1.982,1.157-4.178,1.997-6.514,2.45C60.232,21.227,57.567,20,54.617,20c-5.666,0-10.258,4.521-10.258,10.098
	c0,0.792,0.091,1.562,0.266,2.301c-8.524-0.421-16.083-4.44-21.143-10.551c-0.883,1.492-1.389,3.227-1.389,5.077
	c0,3.504,1.811,6.594,4.563,8.405c-1.681-0.053-3.263-0.507-4.646-1.264c0,0.043-0.001,0.085-0.001,0.127
	c0,4.894,3.537,8.975,8.229,9.902c-0.861,0.23-1.767,0.354-2.703,0.354c-0.661,0-1.303-0.063-1.929-0.181
	c1.304,4.012,5.093,6.931,9.582,7.013c-3.511,2.708-7.934,4.323-12.74,4.323c-0.828,0-1.645-0.049-2.447-0.143
	C24.541,58.328,29.932,60,35.725,60c18.868,0,29.187-15.388,29.187-28.731c0-0.438-0.01-0.874-0.03-1.306
	C66.885,28.538,68.624,26.76,70,24.735z"/>
<text transform="matrix(1 0 0 1 84.4238 50)" fill="#FFFFFF" font-family="'OpenSans'" font-size="30">Connect</text>
</svg>
