<?xml version="1.0" encoding="utf-8"?>
<!-- Generator: Adobe Illustrator 16.0.3, SVG Export Plug-In . SVG Version: 6.00 Build 0)  -->
<!DOCTYPE svg PUBLIC "-//W3C//DTD SVG 1.1//EN" "http://www.w3.org/Graphics/SVG/1.1/DTD/svg11.dtd">
<svg version="1.1" id="Layer_1" xmlns="http://www.w3.org/2000/svg" xmlns:xlink="http://www.w3.org/1999/xlink" x="0px" y="0px"
	 width="220px" height="80px" viewBox="0 0 220 80" enable-background="new 0 0 220 80" xml:space="preserve">
<g>
	<path fill="#89CFE5" d="M220,70c0,5.5-4.5,10-10,10H10C4.5,80,0,75.5,0,70V10C0,4.5,4.5,0,10,0h200c5.5,0,10,4.5,10,10V70z"/>
</g>
<path fill="#FFFFFF" d="M70,24.735c-1.84,0.803-3.817,1.346-5.892,1.59c2.118-1.25,3.744-3.229,4.51-5.587
	c-1.982,1.157-4.178,1.997-6.514,2.45C60.232,21.227,57.567,20,54.617,20c-5.666,0-10.258,4.521-10.258,10.098
	c0,0.792,0.091,1.562,0.266,2.301c-8.524-0.421-16.083-4.44-21.143-10.551c-0.883,1.492-1.389,3.227-1.389,5.077
	c0,3.504,1.811,6.594,4.563,8.405c-1.681-0.053-3.263-0.507-4.646-1.264c0,0.043-0.001,0.085-0.001,0.127
	c0,4.894,3.537,8.975,8.229,9.903c-0.861,0.229-1.767,0.354-2.703,0.354c-0.661,0-1.303-0.063-1.929-0.182
	c1.304,4.012,5.093,6.932,9.582,7.014c-3.511,2.708-7.934,4.322-12.74,4.322c-0.828,0-1.645-0.049-2.447-0.143
	C24.541,58.328,29.932,60,35.725,60c18.868,0,29.187-15.389,29.187-28.731c0-0.438-0.01-0.874-0.03-1.306
	C66.885,28.538,68.624,26.76,70,24.735z"/>
<g enable-background="new    ">
	<path fill="#FFFFFF" d="M96.538,30.503c-2.354,0-4.211,0.784-5.574,2.351c-1.362,1.568-2.043,3.713-2.043,6.438
		c0,2.803,0.657,4.969,1.97,6.497s3.186,2.292,5.618,2.292c1.494,0,3.198-0.269,5.112-0.806v2.183
		c-1.484,0.557-3.315,0.835-5.493,0.835c-3.154,0-5.588-0.957-7.302-2.871s-2.571-4.634-2.571-8.159
		c0-2.207,0.413-4.141,1.238-5.801s2.017-2.939,3.574-3.838s3.391-1.348,5.5-1.348c2.246,0,4.209,0.41,5.889,1.23l-1.055,2.139
		C99.78,30.884,98.159,30.503,96.538,30.503z"/>
	<path fill="#FFFFFF" d="M119.785,41.958c0,2.617-0.659,4.661-1.978,6.13c-1.318,1.471-3.14,2.205-5.464,2.205
		c-1.436,0-2.71-0.337-3.823-1.011s-1.973-1.641-2.578-2.9s-0.908-2.734-0.908-4.424c0-2.617,0.654-4.655,1.963-6.116
		c1.309-1.459,3.125-2.189,5.449-2.189c2.246,0,4.03,0.747,5.354,2.241C119.123,37.388,119.785,39.409,119.785,41.958z
		 M107.554,41.958c0,2.051,0.41,3.613,1.23,4.688s2.026,1.611,3.618,1.611s2.8-0.534,3.625-1.604
		c0.825-1.068,1.238-2.634,1.238-4.694c0-2.041-0.413-3.591-1.238-4.651c-0.825-1.059-2.043-1.589-3.654-1.589
		c-1.592,0-2.793,0.522-3.604,1.567S107.554,39.888,107.554,41.958z"/>
	<path fill="#FFFFFF" d="M135.034,50V39.614c0-1.309-0.298-2.285-0.894-2.93s-1.528-0.967-2.798-0.967
		c-1.68,0-2.91,0.454-3.691,1.362s-1.172,2.407-1.172,4.497V50h-2.432V33.945h1.978l0.396,2.197h0.117
		c0.498-0.791,1.196-1.403,2.095-1.838c0.898-0.435,1.899-0.652,3.003-0.652c1.934,0,3.389,0.467,4.365,1.398
		c0.977,0.934,1.465,2.425,1.465,4.476V50H135.034z"/>
	<path fill="#FFFFFF" d="M153.447,50V39.614c0-1.309-0.298-2.285-0.894-2.93s-1.528-0.967-2.798-0.967
		c-1.68,0-2.91,0.454-3.691,1.362s-1.172,2.407-1.172,4.497V50h-2.432V33.945h1.978l0.396,2.197h0.117
		c0.498-0.791,1.196-1.403,2.095-1.838c0.898-0.435,1.899-0.652,3.003-0.652c1.934,0,3.389,0.467,4.365,1.398
		c0.977,0.934,1.465,2.425,1.465,4.476V50H153.447z"/>
	<path fill="#FFFFFF" d="M167.656,50.293c-2.373,0-4.246-0.723-5.618-2.168s-2.058-3.452-2.058-6.021
		c0-2.588,0.638-4.644,1.911-6.167c1.275-1.523,2.986-2.285,5.135-2.285c2.012,0,3.604,0.662,4.775,1.984
		c1.172,1.324,1.758,3.069,1.758,5.237v1.538H162.5c0.049,1.885,0.524,3.315,1.429,4.292c0.902,0.977,2.175,1.465,3.815,1.465
		c1.729,0,3.438-0.361,5.127-1.084v2.168c-0.859,0.371-1.673,0.638-2.438,0.798C169.665,50.213,168.74,50.293,167.656,50.293z
		 M166.997,35.688c-1.289,0-2.317,0.42-3.084,1.26s-1.218,2.002-1.354,3.486h8.394c0-1.533-0.342-2.707-1.025-3.522
		S168.267,35.688,166.997,35.688z"/>
	<path fill="#FFFFFF" d="M184.121,50.293c-2.324,0-4.123-0.715-5.398-2.146c-1.273-1.43-1.911-3.454-1.911-6.071
		c0-2.686,0.646-4.761,1.94-6.226s3.138-2.197,5.53-2.197c0.771,0,1.543,0.083,2.314,0.249s1.377,0.361,1.816,0.586l-0.747,2.065
		c-0.537-0.215-1.123-0.393-1.758-0.535c-0.635-0.141-1.196-0.212-1.685-0.212c-3.262,0-4.893,2.08-4.893,6.24
		c0,1.973,0.397,3.486,1.194,4.541c0.795,1.055,1.975,1.582,3.537,1.582c1.338,0,2.71-0.288,4.116-0.864v2.153
		C187.104,50.015,185.752,50.293,184.121,50.293z"/>
	<path fill="#FFFFFF" d="M197.173,48.286c0.43,0,0.845-0.031,1.245-0.095s0.718-0.13,0.952-0.198v1.86
		c-0.264,0.127-0.652,0.231-1.164,0.314c-0.514,0.083-0.975,0.125-1.385,0.125c-3.105,0-4.658-1.636-4.658-4.907v-9.551h-2.3v-1.172
		l2.3-1.011l1.025-3.428h1.406v3.721h4.658v1.89h-4.658v9.448c0,0.967,0.229,1.709,0.688,2.227S196.372,48.286,197.173,48.286z"/>
</g>
</svg>
